<?xml version="1.0" encoding="UTF-8" standalone="no"?>
<!-- Created with Inkscape (http://www.inkscape.org/) -->

<svg
   width="1024"
   height="768"
   viewBox="0 0 1024 768"
   version="1.1"
   id="svg5"
   sodipodi:docname="Final 2 Red Sign.svg"
   inkscape:version="1.1.2 (b8e25be833, 2022-02-05)"
   xmlns:inkscape="http://www.inkscape.org/namespaces/inkscape"
   xmlns:sodipodi="http://sodipodi.sourceforge.net/DTD/sodipodi-0.dtd"
   xmlns:xlink="http://www.w3.org/1999/xlink"
   xmlns="http://www.w3.org/2000/svg"
   xmlns:svg="http://www.w3.org/2000/svg">
  <sodipodi:namedview
     id="namedview7"
     pagecolor="#505050"
     bordercolor="#eeeeee"
     borderopacity="1"
     inkscape:pageshadow="0"
     inkscape:pageopacity="0"
     inkscape:pagecheckerboard="0"
     inkscape:document-units="px"
     showgrid="false"
     inkscape:zoom="1.0520833"
     inkscape:cx="482.37625"
     inkscape:cy="361.66338"
     inkscape:window-width="1920"
     inkscape:window-height="1121"
     inkscape:window-x="-9"
     inkscape:window-y="-1209"
     inkscape:window-maximized="1"
     inkscape:current-layer="layer1" />
  <defs
     id="defs2">
    <clipPath
       id="clipPath826">
      <path
         fill="#00f"
         fill-opacity=".514"
         d="m-7 1024.36h34v34h-34z"
         id="path824" />
    </clipPath>
    <clipPath
       id="clipPath830">
      <path
         fill="#aade87"
         fill-opacity=".472"
         d="m-6 1028.36h32v32h-32z"
         id="path828" />
    </clipPath>
    <linearGradient
       id="linearGradient3759">
      <stop
         id="stop3761"
         style="stop-color:#1a1a1a"
         offset="0" />
      <stop
         id="stop3763"
         style="stop-color:#000000;stop-opacity:0"
         offset="1" />
    </linearGradient>
    <linearGradient
       id="linearGradient4149"
       y2="834.68"
       xlink:href="#linearGradient3759"
       gradientUnits="userSpaceOnUse"
       x2="848.16"
       gradientTransform="translate(8.3085,-2.6518)"
       y1="842.3"
       x1="871.33" />
    <linearGradient
       id="linearGradient4153"
       y2="533.5"
       xlink:href="#linearGradient3759"
       gradientUnits="userSpaceOnUse"
       x2="812.14"
       gradientTransform="matrix(0.89332,0,0,0.89332,80.349,365.15)"
       y1="537.5"
       x1="879.9" />
    <linearGradient
       id="linearGradient4155"
       y2="531.91"
       xlink:href="#linearGradient3759"
       gradientUnits="userSpaceOnUse"
       x2="815.82"
       gradientTransform="translate(27.625,296.49)"
       y1="537.5"
       x1="879.9" />
    <linearGradient
       id="linearGradient4185"
       y2="834.68"
       xlink:href="#linearGradient3759"
       gradientUnits="userSpaceOnUse"
       x2="848.16"
       gradientTransform="matrix(1,0,0,-1,8.3085,1452)"
       y1="842.3"
       x1="871.33" />
    <linearGradient
       id="linearGradient4187"
       y2="528.42"
       xlink:href="#linearGradient3759"
       gradientUnits="userSpaceOnUse"
       x2="876.14"
       gradientTransform="matrix(1,0,0,-1,21.438,1151.5)"
       y1="528.36"
       x1="887.9" />
    <linearGradient
       id="linearGradient4189"
       y2="531.91"
       xlink:href="#linearGradient3759"
       gradientUnits="userSpaceOnUse"
       x2="815.82"
       gradientTransform="matrix(1,0,0,-1,27.625,1152.9)"
       y1="537.5"
       x1="879.9" />
    <linearGradient
       id="linearGradient4191"
       y2="535.37"
       xlink:href="#linearGradient3759"
       gradientUnits="userSpaceOnUse"
       x2="883.76"
       gradientTransform="matrix(1,0,0,-1,21.438,1151.5)"
       y1="542.4"
       x1="897.22" />
    <linearGradient
       id="linearGradient4193"
       y2="501.08"
       xlink:href="#linearGradient3759"
       gradientUnits="userSpaceOnUse"
       x2="835.99"
       gradientTransform="matrix(1,0,0,-1,21.438,1151.5)"
       y1="552.05"
       x1="880.71" />
    <linearGradient
       id="linearGradient4195"
       y2="529.61"
       xlink:href="#linearGradient3759"
       gradientUnits="userSpaceOnUse"
       x2="805.29"
       gradientTransform="matrix(0.89332,0,0,-0.89332,94.156,1087.8)"
       y1="528.36"
       x1="887.9" />
    <linearGradient
       id="linearGradient4197"
       y2="533.5"
       xlink:href="#linearGradient3759"
       gradientUnits="userSpaceOnUse"
       x2="812.14"
       gradientTransform="matrix(0.89332,0,0,-0.89332,80.349,1084.2)"
       y1="537.5"
       x1="879.9" />
    <linearGradient
       id="linearGradient4199"
       y2="867.68"
       xlink:href="#linearGradient3759"
       gradientUnits="userSpaceOnUse"
       x2="205.59"
       gradientTransform="matrix(0.99043,-0.13799,-0.13799,-0.99043,146.05,1483.3)"
       y1="873.14"
       x1="229.7" />
    <linearGradient
       id="linearGradient4201"
       y2="872.65"
       xlink:href="#linearGradient3759"
       gradientUnits="userSpaceOnUse"
       x2="216.56"
       gradientTransform="matrix(0.99043,-0.13799,-0.13799,-0.99043,156.31,1482)"
       y1="873.06"
       x1="238.83" />
    <linearGradient
       id="linearGradient4203"
       y2="528.42"
       xlink:href="#linearGradient3759"
       gradientUnits="userSpaceOnUse"
       x2="876.14"
       gradientTransform="translate(21.438,297.91)"
       y1="528.36"
       x1="887.9" />
    <linearGradient
       id="linearGradient4205"
       y2="535.37"
       xlink:href="#linearGradient3759"
       gradientUnits="userSpaceOnUse"
       x2="883.76"
       gradientTransform="translate(21.438,297.91)"
       y1="542.4"
       x1="897.22" />
    <linearGradient
       id="linearGradient4207"
       y2="501.08"
       xlink:href="#linearGradient3759"
       gradientUnits="userSpaceOnUse"
       x2="835.99"
       gradientTransform="translate(21.438,297.91)"
       y1="552.05"
       x1="880.71" />
    <linearGradient
       id="linearGradient4209"
       y2="529.61"
       xlink:href="#linearGradient3759"
       gradientUnits="userSpaceOnUse"
       x2="805.29"
       gradientTransform="matrix(0.89332,0,0,0.89332,94.156,361.57)"
       y1="528.36"
       x1="887.9" />
    <linearGradient
       id="linearGradient4211"
       y2="867.68"
       xlink:href="#linearGradient3759"
       gradientUnits="userSpaceOnUse"
       x2="205.59"
       gradientTransform="matrix(0.99043,0.13799,-0.13799,0.99043,146.05,-33.885)"
       y1="873.14"
       x1="229.7" />
    <linearGradient
       id="linearGradient4213"
       y2="872.65"
       xlink:href="#linearGradient3759"
       gradientUnits="userSpaceOnUse"
       x2="216.56"
       gradientTransform="matrix(0.99043,0.13799,-0.13799,0.99043,156.31,-32.603)"
       y1="873.06"
       x1="238.83" />
    <linearGradient
       id="linearGradient4149-5"
       y2="834.68"
       xlink:href="#linearGradient3759"
       gradientUnits="userSpaceOnUse"
       x2="848.16"
       gradientTransform="translate(8.3085,-2.6518)"
       y1="842.3"
       x1="871.33" />
    <linearGradient
       id="linearGradient4153-9"
       y2="533.5"
       xlink:href="#linearGradient3759"
       gradientUnits="userSpaceOnUse"
       x2="812.14"
       gradientTransform="matrix(0.89332,0,0,0.89332,80.349,365.15)"
       y1="537.5"
       x1="879.9" />
    <linearGradient
       id="linearGradient4155-7"
       y2="531.91"
       xlink:href="#linearGradient3759"
       gradientUnits="userSpaceOnUse"
       x2="815.82"
       gradientTransform="translate(27.625,296.49)"
       y1="537.5"
       x1="879.9" />
    <linearGradient
       id="linearGradient4185-4"
       y2="834.68"
       xlink:href="#linearGradient3759"
       gradientUnits="userSpaceOnUse"
       x2="848.16"
       gradientTransform="matrix(1,0,0,-1,8.3085,1452)"
       y1="842.3"
       x1="871.33" />
    <linearGradient
       id="linearGradient4187-8"
       y2="528.42"
       xlink:href="#linearGradient3759"
       gradientUnits="userSpaceOnUse"
       x2="876.14"
       gradientTransform="matrix(1,0,0,-1,21.438,1151.5)"
       y1="528.36"
       x1="887.9" />
    <linearGradient
       id="linearGradient4189-4"
       y2="531.91"
       xlink:href="#linearGradient3759"
       gradientUnits="userSpaceOnUse"
       x2="815.82"
       gradientTransform="matrix(1,0,0,-1,27.625,1152.9)"
       y1="537.5"
       x1="879.9" />
    <linearGradient
       id="linearGradient4191-0"
       y2="535.37"
       xlink:href="#linearGradient3759"
       gradientUnits="userSpaceOnUse"
       x2="883.76"
       gradientTransform="matrix(1,0,0,-1,21.438,1151.5)"
       y1="542.4"
       x1="897.22" />
    <linearGradient
       id="linearGradient4193-6"
       y2="501.08"
       xlink:href="#linearGradient3759"
       gradientUnits="userSpaceOnUse"
       x2="835.99"
       gradientTransform="matrix(1,0,0,-1,21.438,1151.5)"
       y1="552.05"
       x1="880.71" />
    <linearGradient
       id="linearGradient4195-2"
       y2="529.61"
       xlink:href="#linearGradient3759"
       gradientUnits="userSpaceOnUse"
       x2="805.29"
       gradientTransform="matrix(0.89332,0,0,-0.89332,94.156,1087.8)"
       y1="528.36"
       x1="887.9" />
    <linearGradient
       id="linearGradient4197-3"
       y2="533.5"
       xlink:href="#linearGradient3759"
       gradientUnits="userSpaceOnUse"
       x2="812.14"
       gradientTransform="matrix(0.89332,0,0,-0.89332,80.349,1084.2)"
       y1="537.5"
       x1="879.9" />
    <linearGradient
       id="linearGradient4199-3"
       y2="867.68"
       xlink:href="#linearGradient3759"
       gradientUnits="userSpaceOnUse"
       x2="205.59"
       gradientTransform="matrix(0.99043,-0.13799,-0.13799,-0.99043,146.05,1483.3)"
       y1="873.14"
       x1="229.7" />
    <linearGradient
       id="linearGradient4201-0"
       y2="872.65"
       xlink:href="#linearGradient3759"
       gradientUnits="userSpaceOnUse"
       x2="216.56"
       gradientTransform="matrix(0.99043,-0.13799,-0.13799,-0.99043,156.31,1482)"
       y1="873.06"
       x1="238.83" />
    <linearGradient
       id="linearGradient4203-5"
       y2="528.42"
       xlink:href="#linearGradient3759"
       gradientUnits="userSpaceOnUse"
       x2="876.14"
       gradientTransform="translate(21.438,297.91)"
       y1="528.36"
       x1="887.9" />
    <linearGradient
       id="linearGradient4205-6"
       y2="535.37"
       xlink:href="#linearGradient3759"
       gradientUnits="userSpaceOnUse"
       x2="883.76"
       gradientTransform="translate(21.438,297.91)"
       y1="542.4"
       x1="897.22" />
    <linearGradient
       id="linearGradient4207-1"
       y2="501.08"
       xlink:href="#linearGradient3759"
       gradientUnits="userSpaceOnUse"
       x2="835.99"
       gradientTransform="translate(21.438,297.91)"
       y1="552.05"
       x1="880.71" />
    <linearGradient
       id="linearGradient4209-3"
       y2="529.61"
       xlink:href="#linearGradient3759"
       gradientUnits="userSpaceOnUse"
       x2="805.29"
       gradientTransform="matrix(0.89332,0,0,0.89332,94.156,361.57)"
       y1="528.36"
       x1="887.9" />
    <linearGradient
       id="linearGradient4211-5"
       y2="867.68"
       xlink:href="#linearGradient3759"
       gradientUnits="userSpaceOnUse"
       x2="205.59"
       gradientTransform="matrix(0.99043,0.13799,-0.13799,0.99043,146.05,-33.885)"
       y1="873.14"
       x1="229.7" />
    <linearGradient
       id="linearGradient4213-0"
       y2="872.65"
       xlink:href="#linearGradient3759"
       gradientUnits="userSpaceOnUse"
       x2="216.56"
       gradientTransform="matrix(0.99043,0.13799,-0.13799,0.99043,156.31,-32.603)"
       y1="873.06"
       x1="238.83" />
  </defs>
  <g
     inkscape:label="Calque 1"
     inkscape:groupmode="layer"
     id="layer1">
    <rect
       style="fill:#cfcfcf;fill-opacity:1;stroke-width:0"
       id="Background"
       width="1024"
       height="768"
       x="0"
       y="0" />
    <path
       style="fill:#4d4d4d;fill-opacity:1;stroke:#000000;stroke-width:0.997338px;stroke-linecap:butt;stroke-linejoin:miter;stroke-opacity:1"
       d="M 682.57247,-4e-6 993.57247,768 H 29.572466 L 340.57247,-4e-6"
       id="Road"
       sodipodi:nodetypes="cccc" />
    <g
       id="g17858"
       transform="matrix(1.7265334,0,0.14328604,1.7265334,-31.70759,-329.06688)">
      <polygon
         transform="matrix(1,0,-0.01612524,1.194302,7.0657189,-84.217235)"
         points="260.469,437.17 89.469,437.17 132.469,352.17 230.469,352.817 265.469,353.048 437.469,352.5 469.469,437.17 "
         id="polygon14"
         style="fill:#ffffff;fill-opacity:1;stroke:none" />
      <polygon
         style="fill:#4d4d4d;fill-opacity:1"
         transform="matrix(1,0,-0.01262541,1.1521306,5.5483228,-65.933283)"
         points="175.469,438.17 132.469,438.17 167.469,349.217 199.469,348.17 "
         id="polygon16" />
      <polygon
         style="fill:#4d4d4d;fill-opacity:1"
         transform="matrix(1,0,-0.01830521,1.2514037,8.0190672,-106.51665)"
         points="308.287,436.929 351.197,437.188 338.218,350.65 301.699,353.167 "
         id="polygon18" />
      <polygon
         style="fill:#4d4d4d;fill-opacity:1;stroke-width:1.00028;stroke-miterlimit:4;stroke-dasharray:none"
         transform="matrix(1,0,-0.01309209,1.1577539,5.7659038,-68.555038)"
         points="433.469,439.17 392.469,439.17 369.469,349.17 402.469,349.17 "
         id="polygon20" />
      <polygon
         style="fill:#4d4d4d;fill-opacity:1"
         transform="matrix(1,0,-0.01412179,1.2070096,6.1898715,-86.553816)"
         points="230.469,349.817 265.469,350.056 260.469,437.17 220.469,437.17 "
         id="polygon22" />
    </g>
    <g
       id="Arrow"
       transform="matrix(1.2914552,0,0,1.2914552,-85.99229,-56.746154)"
       style="stroke:#ffffff;stroke-width:5.42024;stroke-linejoin:round;stroke-miterlimit:4;stroke-dasharray:none;stroke-opacity:1;fill:#cc2c2c;fill-opacity:1">
      <path
         d="m 538.77907,212.39949 -85.21742,79.09791 c -5.4207,5.03418 -14.242,5.06397 -19.70013,0.0687 -5.4585,-4.99294 -5.49082,-13.12084 -0.0746,-18.15021 l 75.40142,-69.9901 -75.95702,-69.47425 c -5.4585,-4.99501 -5.49094,-13.1221 -0.0746,-18.15182 5.41859,-5.03178 14.23939,-5.06156 19.70013,-0.0687 l 85.84549,78.51929 c 2.72925,2.49767 4.1004,5.77513 4.11346,9.05889 0.0124,3.28525 -1.3346,6.5744 -4.04334,9.08926"
         fill="#4d4d4d"
         id="path834-9"
         style="fill:#cc2c2c;fill-opacity:1;stroke:#ffffff;stroke-width:5.42024;stroke-linejoin:round;stroke-miterlimit:4;stroke-dasharray:none;stroke-opacity:1" />
      <path
         d="m 467.13148,212.11643 -85.21742,79.09791 c -5.4207,5.03418 -14.242,5.06397 -19.70013,0.0687 -5.4585,-4.99294 -5.49082,-13.12084 -0.0746,-18.15021 l 75.40142,-69.9901 -75.95702,-69.47425 c -5.4585,-4.99501 -5.49094,-13.1221 -0.0746,-18.15182 5.41859,-5.03178 14.23939,-5.06156 19.70013,-0.0687 l 85.84549,78.51929 c 2.72925,2.49767 4.1004,5.77513 4.11346,9.05889 0.0124,3.28525 -1.3346,6.5744 -4.04334,9.08926"
         fill="#4d4d4d"
         id="path834"
         style="fill:#cc2c2c;fill-opacity:1;stroke:#ffffff;stroke-width:5.42024;stroke-linejoin:round;stroke-miterlimit:4;stroke-dasharray:none;stroke-opacity:1" />
    </g>
    <g
       id="Arrow2"
       transform="matrix(1.2914552,0,0,1.2914552,223.45809,-59.415346)"
       style="stroke:#ffffff;stroke-width:5.42024;stroke-linejoin:round;stroke-miterlimit:4;stroke-dasharray:none;stroke-opacity:1;fill:#cc2c2c;fill-opacity:1">
      <path
         d="m 538.77907,212.39949 -85.21742,79.09791 c -5.4207,5.03418 -14.242,5.06397 -19.70013,0.0687 -5.4585,-4.99294 -5.49082,-13.12084 -0.0746,-18.15021 l 75.40142,-69.9901 -75.95702,-69.47425 c -5.4585,-4.99501 -5.49094,-13.1221 -0.0746,-18.15182 5.41859,-5.03178 14.23939,-5.06156 19.70013,-0.0687 l 85.84549,78.51929 c 2.72925,2.49767 4.1004,5.77513 4.11346,9.05889 0.0124,3.28525 -1.3346,6.5744 -4.04334,9.08926"
         fill="#4d4d4d"
         id="path834-9-5"
         style="fill:#cc2c2c;fill-opacity:1;stroke:#ffffff;stroke-width:5.42024;stroke-linejoin:round;stroke-miterlimit:4;stroke-dasharray:none;stroke-opacity:1" />
      <path
         d="m 467.13148,212.11643 -85.21742,79.09791 c -5.4207,5.03418 -14.242,5.06397 -19.70013,0.0687 -5.4585,-4.99294 -5.49082,-13.12084 -0.0746,-18.15021 l 75.40142,-69.9901 -75.95702,-69.47425 c -5.4585,-4.99501 -5.49094,-13.1221 -0.0746,-18.15182 5.41859,-5.03178 14.23939,-5.06156 19.70013,-0.0687 l 85.84549,78.51929 c 2.72925,2.49767 4.1004,5.77513 4.11346,9.05889 0.0124,3.28525 -1.3346,6.5744 -4.04334,9.08926"
         fill="#4d4d4d"
         id="path834-5"
         style="fill:#cc2c2c;fill-opacity:1;stroke:#ffffff;stroke-width:5.42024;stroke-linejoin:round;stroke-miterlimit:4;stroke-dasharray:none;stroke-opacity:1" />
    </g>
    <g
       id="Character"
       transform="matrix(0.83975425,0,0,0.78396585,-23.183038,20.408365)">
      <circle
         cx="292"
         cy="42"
         r="37"
         fill="#4d4d4d"
         id="circle847"
         style="fill:#000000;fill-opacity:1" />
      <path
         d="m 143,219 v -84 l 107,-31 h 10 l 47,83 h 78 m -156,-62 -83,323 83,-229 63,114 v 115 -94 l -63,-94 37,-135"
         stroke="#4d4d4d"
         stroke-width="36"
         stroke-linecap="round"
         stroke-linejoin="round"
         fill="none"
         id="path849"
         style="stroke:#000000;stroke-width:36;stroke-miterlimit:4;stroke-dasharray:none;stroke-opacity:1" />
    </g>
    <g
       id="Character2"
       transform="matrix(0.83975425,0,0,0.78396585,-23.183038,20.408365)"
       style="stroke:#000000;stroke-opacity:1">
      <circle
         cx="292.41916"
         cy="43.067348"
         r="28.426025"
         fill="#4d4d4d"
         id="circle847-5"
         style="fill:#cc2c2c;fill-opacity:1;stroke:none;stroke-width:0.767977;stroke-miterlimit:4;stroke-dasharray:none;stroke-opacity:1" />
      <path
         d="m 141.49948,219 v -85.46563 l 108.86693,-31.54089 h 10.17447 l 47.82006,84.44818 h 79.36093 M 229,123.35988 144.55183,451.99557 229,219 293.09922,334.98906 V 451.99557 356.35546 L 229,260.71537 266.64557,123.35988"
         stroke="#4d4d4d"
         stroke-width="36"
         stroke-linecap="round"
         stroke-linejoin="round"
         fill="none"
         id="path849-9"
         style="stroke:#cc2c2c;stroke-width:16.649;stroke-miterlimit:4;stroke-dasharray:none;stroke-opacity:1" />
      <path
         style="fill:none;stroke:#cc2c2c;stroke-width:31.2234;stroke-linecap:butt;stroke-linejoin:miter;stroke-miterlimit:4;stroke-dasharray:none;stroke-opacity:1"
         d="m 250.20978,104.05841 c -5.13297,10.74491 0.0424,22.9835 -1.95832,34.02317 -0.49661,2.7403 -1.9604,5.22481 -2.63373,7.92688 -0.93734,3.76153 0.72551,10.13795 -1.31687,13.21148 -0.54446,0.81933 -2.08928,0.50181 -2.63374,1.32115 -0.48697,0.73285 0.27762,1.80673 0,2.6423 -0.62077,1.86838 -2.01295,3.41621 -2.63373,5.28459 -1.25654,3.78188 0.69893,4.5292 -1.31688,9.24803 -0.62345,1.45944 -2.13325,2.45711 -2.63374,3.96345 -1.42392,4.28565 0.33609,10.3868 -1.31686,14.53261 -1.6665,4.17979 -3.95062,7.44413 -3.95062,11.89035 0,2.19076 0.42575,7.71331 0,7.92688 -0.78522,0.39389 -2.14675,-0.73284 -2.63374,0 -0.73046,1.09926 0.51874,2.74912 0,3.96345 -0.86457,2.02388 -3.08604,3.2607 -3.9506,5.28459 -0.51874,1.21432 0.58891,2.78177 0,3.96344 -0.43896,0.88076 -2.19479,0.44038 -2.63374,1.32115 0,4.0931 0.58892,3.41911 -1.31688,6.60574 -1.21618,2.03358 -4.4142,5.04578 -2.63374,6.60574 3.70258,3.24401 8.20777,5.42972 12.31164,8.14456"
         id="path33505" />
      <path
         style="fill:none;stroke:#cc2c2c;stroke-width:24.2295;stroke-linecap:butt;stroke-linejoin:miter;stroke-miterlimit:4;stroke-dasharray:none;stroke-opacity:1"
         d="m 196.17624,287.29952 c 0,-0.40653 -0.10432,-0.82873 0,-1.21964 0.22688,-0.85059 0.70111,-1.60511 0.97597,-2.4393 0.0541,-0.16429 -0.0661,-0.36348 0,-0.5227 0.15879,-0.38271 0.48885,-0.66414 0.65063,-1.04541 0.11446,-0.2696 0.0682,-0.59287 0.16268,-0.87118 -0.0196,-0.69002 0.60597,-1.01293 0.81328,-1.56812 0.1302,-0.34863 0.0582,-0.67249 0.16268,-1.04541 0.11869,-0.42366 0.33974,-0.80682 0.48797,-1.21965 0.12308,-0.34285 0.15518,-0.72649 0.32533,-1.04541 0.0601,-0.11277 0.25807,-0.0661 0.32531,-0.17425 0.15337,-0.24639 0.0204,-0.61722 0.16266,-0.87117 0.0789,-0.14079 0.25674,-0.20154 0.32533,-0.34847 0.23281,-0.49876 0.46804,-2.0481 0.65063,-2.4393 0.17486,-0.37459 0.45666,-0.68178 0.65065,-1.04541 0.19777,-0.37073 0.0674,-1.68244 0.16265,-2.09082 0.0708,-0.30343 0.25451,-0.56775 0.32533,-0.87118 0.10227,-0.43833 -0.0828,-0.95011 0,-1.39388 0.1009,-0.54028 0.3764,-1.03026 0.48798,-1.56812 0.28228,-1.36068 -0.13335,-3.08748 0.16265,-4.35589 0.10159,-0.43505 0.6593,-2.41659 0.81331,-2.78777 0.32605,-0.7858 0.97014,-2.32728 1.46394,-2.962 0.46699,-0.60026 1.15189,-0.97486 1.62661,-1.56813 0.82632,-1.03265 1.60827,-2.10837 2.4399,-3.13623 0.35154,-0.43449 0.82292,-0.75467 1.13862,-1.21964 0.13143,-0.19367 0.0797,-0.47462 0.16266,-0.69695 0.13513,-0.36174 0.28623,-0.72124 0.48799,-1.04541 0.54981,-0.88342 1.51294,-1.61073 2.11457,-2.4393 0.10529,-0.14504 0.0415,-0.39284 0.16266,-0.52271 0.0806,-0.0864 3.16717,0 3.57854,0 1.935,0 3.95068,-0.16586 5.85576,0.17424 1.50058,0.26788 -0.59776,0.0411 0.97596,0.5227 0.20855,0.0638 0.44141,-0.0611 0.65065,0 0.39838,0.11644 0.75055,0.37155 1.13863,0.52271 0.21009,0.0818 0.45893,0.051 0.65063,0.17424 0.10391,0.0669 0.0769,0.25663 0.16266,0.34846 0.46167,0.49453 0.94163,0.97427 1.46394,1.39389 0.25292,0.2032 0.58975,0.28324 0.8133,0.5227 0.22356,0.23948 0.26444,0.63172 0.48799,0.87118 0.41292,0.44232 1.15432,0.32903 1.62661,0.69694 0.28076,0.21875 0.43375,0.58079 0.65063,0.87118 0.43376,0.46463 0.78527,1.03857 1.30129,1.39389 0.27742,0.19104 0.66715,0.0502 0.97596,0.17424 0.14358,0.0576 0.20263,0.2499 0.32531,0.34846 0.13717,0.11014 0.36674,0.0444 0.48799,0.17424 0.86832,0.93013 0.0906,0.46101 0.97596,1.21965 0.0947,0.0811 0.21688,0.11615 0.32531,0.17424 0.32533,0.17423 0.70225,0.26615 0.97598,0.52269 1.2826,1.20215 -0.80339,0.26667 0.97596,1.21966 0.19995,0.10706 0.47606,0.0246 0.65063,0.17424 0.13389,0.11467 0.0676,0.36989 0.16267,0.52269 0.33001,0.53025 0.91337,0.97838 1.30128,1.39389 0.21525,0.23058 0.90326,1.95356 0.97596,2.26506 0.25971,1.11277 -0.17344,1.47996 0.48798,2.61353 0.0813,0.13932 0.24642,0.20761 0.32532,0.34848 0.0882,0.15749 0.0415,0.39283 0.16266,0.5227 0.17146,0.18367 0.47918,0.16482 0.65064,0.34848 0.1213,0.12979 0.0598,0.37577 0.16266,0.5227 0.21824,0.31169 0.68499,0.28894 0.97596,0.52271 0.0434,0.0349 -0.0412,0.13639 0,0.17424 0.35413,0.32513 0.80882,0.5179 1.13863,0.87118 0.12116,0.12993 0.093,0.35487 0.16266,0.52269 0.14772,0.35604 0.29521,0.71505 0.48797,1.04543 0.55437,0.9501 1.73902,1.4784 2.27725,2.43929 0.11158,0.1992 -0.0854,0.48341 0,0.69694 0.16682,0.41694 0.60764,0.64889 0.8133,1.04541 0.49941,0.9629 0.91237,2.03357 1.46395,2.962 0.61614,1.03713 1.52287,2.05296 2.27723,2.962 0.40754,0.49111 0.97617,0.83669 1.30129,1.39389 0.24553,0.4208 0.21003,0.9969 0.48798,1.39388 0.0727,0.10397 0.25089,0.0717 0.32533,0.17425 0.68745,0.94677 1.28492,2.23002 1.78926,3.31046 0.29444,0.63081 0.13403,1.05985 0.48797,1.74236 0.3799,0.73246 0.95333,1.81422 1.46395,2.4393 0.17852,0.21854 0.43376,0.34847 0.65064,0.5227 0.32532,0.34848 0.69351,0.65641 0.97596,1.04541 0.10528,0.14504 0.10843,0.34848 0.16266,0.52272 0.16266,0.29039 0.27532,0.6206 0.48799,0.87117 0.49068,0.57816 1.19755,0.93621 1.6266,1.56813 2.6755,4.58541 -0.50671,-0.49586 1.46393,1.91659 0.2082,0.25486 0.27795,0.61806 0.48799,0.87118 0.23065,0.27794 0.58468,0.41706 0.8133,0.69693 0.15968,0.19548 0.17983,0.48916 0.32532,0.69694 0.27604,0.39425 0.65064,0.69695 0.97596,1.04541"
         id="path33897" />
    </g>
    <g
       id="Car"
       transform="matrix(0,-1.3584524,1.3584524,0,190,1925)">
      <g
         id="layer1-1"
         transform="translate(-52.937,-486.69)">
        <g
           id="g3890">
          <path
             id="path3855"
             style="fill:#000000;fill-opacity:0.99608;stroke:#191919;stroke-width:14"
             d="m 610.52,493.69 c -1.5086,0.009 -4.7211,0.30491 -6.4687,0.9375 l -3.5,1.5 8.6562,35.938 -124.81,0.28125 c -2.4363,0.005 -4.8876,-0.014 -7.3437,-0.0312 -4.912,-0.0343 -9.8649,-0.10455 -14.844,-0.21875 -7.2926,-0.16728 -14.669,-0.41288 -22.062,-0.71875 -0.39591,-0.0164 -0.79137,-0.0457 -1.1875,-0.0625 -14.932,-0.63018 -30.007,-1.4917 -45.031,-2.4375 -20.326,-1.2827 -40.52,-2.7074 -60.124,-3.875 -14.528,-0.8653 -28.732,-1.5796 -42.375,-2 -9.3692,-0.28873 -18.464,-0.45655 -27.25,-0.40625 -4.3158,0.0247 -8.5678,0.0933 -12.719,0.21875 -4.1508,0.12546 -8.3801,0.3553 -12.656,0.65625 -2.138,0.15047 -4.2778,0.31024 -6.4374,0.5 -6.4689,0.5684 -13.045,1.3214 -19.594,2.1875 -0.0101,10e-4 -0.0211,-10e-4 -0.0312,0 -4.3725,0.57858 -8.7185,1.2255 -13.062,1.9062 -4.3439,0.68073 -8.6734,1.3978 -12.937,2.1562 -4.2537,0.75662 -8.4704,1.5654 -12.594,2.375 -0.01,0.002 -0.0212,-0.002 -0.0312,0 -2.0664,0.40586 -4.0697,0.80417 -6.0937,1.2188 -6.0614,1.2416 -11.934,2.516 -17.5,3.7812 -0.0101,0.002 -0.0211,-0.002 -0.0312,0 -3.7165,0.8449 -7.2872,1.6752 -10.719,2.5 -6.8638,1.6484 -13.115,3.2346 -18.531,4.6562 -8.1236,2.1325 -14.382,3.9272 -18.094,5 -2.4736,0.71578 -3.8125,1.125 -3.8125,1.125 l -13.687,3.75 c -0.9024,0.24873 -1.7781,0.6929 -2.625,1.3125 -0.28771,0.2105 -0.56234,0.43593 -0.84374,0.6875 -1.0996,0.9796 -2.151,2.2707 -3.1562,3.8438 -0.0046,0.007 0.0046,0.0243 0,0.0312 -0.50036,0.78473 -1.0225,1.6405 -1.5,2.5625 -0.0042,0.008 0.0042,0.0232 0,0.0312 -0.47757,0.9237 -0.95114,1.9142 -1.4062,2.9688 -0.0037,0.009 0.0037,0.0222 0,0.0312 -3.667,8.5095 -6.62,21.131 -8.9374,36.219 -0.0015,0.01 0.0015,0.0212 0,0.0312 -0.03595,0.23416 -0.0581,0.48342 -0.09375,0.71875 -0.50462,3.3315 -0.99204,6.7982 -1.4375,10.344 -0.03048,0.24265 -0.06355,0.47519 -0.09375,0.71875 -0.50157,4.0432 -0.94672,8.2025 -1.375,12.469 -0.001,0.01 9.99e-4,0.0211 0,0.0312 -0.21354,2.1284 -0.42912,4.2948 -0.62499,6.4688 -9.21e-4,0.01 9.21e-4,0.0209 0,0.0312 -0.19581,2.1743 -0.38397,4.3492 -0.56249,6.5625 -8.26e-4,0.01 8.25e-4,0.0209 0,0.0312 -0.35775,4.4376 -0.67817,8.9458 -0.96874,13.5 -6.56e-4,0.0101 6.55e-4,0.0209 0,0.0312 -0.8726,13.684 -1.4596,27.789 -1.7812,41.562 -2.45e-4,0.0104 2.44e-4,0.0207 0,0.0312 -0.21443,9.1894 -0.3126,18.213 -0.3126,26.907 0,0.96763 0.02755,1.9629 0.03125,2.9375 -0.0037,0.97462 -0.03125,1.9699 -0.03125,2.9375 0,8.6932 0.09816,17.717 0.3125,26.906 2.44e-4,0.0105 -2.45e-4,0.0208 0,0.0312 0.32165,13.774 0.90864,27.878 1.7812,41.562 6.55e-4,0.0103 -6.56e-4,0.0211 0,0.0312 0.29057,4.5542 0.61099,9.0624 0.96874,13.5 8.25e-4,0.0103 -8.26e-4,0.0211 0,0.0312 0.17852,2.2133 0.36668,4.3882 0.56249,6.5625 9.21e-4,0.0103 -9.21e-4,0.0211 0,0.0312 0.19588,2.174 0.41145,4.3404 0.62499,6.4688 9.99e-4,0.0102 -0.001,0.0211 0,0.0312 0.42826,4.2663 0.87342,8.4256 1.375,12.469 0.0302,0.24356 0.06327,0.4761 0.09375,0.71875 0.44545,3.5456 0.93287,7.0123 1.4375,10.344 0.03565,0.23533 0.0578,0.48459 0.09375,0.71875 0.0015,0.01 -0.0015,0.0215 0,0.0312 2.3174,15.087 5.2704,27.709 8.9374,36.219 0.0037,0.009 -0.0037,0.0226 0,0.0312 0.45509,1.0546 0.92866,2.045 1.4062,2.9688 0.0042,0.008 -0.0042,0.0231 0,0.0312 0.47753,0.92204 0.99962,1.7778 1.5,2.5625 0.0046,0.007 -0.0046,0.0242 0,0.0312 1.0052,1.5731 2.0566,2.8642 3.1562,3.8438 0.2814,0.25157 0.55603,0.477 0.84374,0.6875 0.84686,0.6196 1.7226,1.0638 2.625,1.3125 l 13.687,3.75 c 0,0 1.3388,0.40922 3.8125,1.125 3.7111,1.0728 9.97,2.8675 18.094,5 5.4157,1.4217 11.667,3.0078 18.531,4.6562 3.4314,0.82484 7.0022,1.6551 10.719,2.5 0.0102,0.002 0.0211,-0.002 0.0312,0 5.5661,1.2652 11.438,2.5396 17.5,3.7812 2.024,0.41458 4.0273,0.81289 6.0937,1.2188 0.0101,0.002 0.0212,-0.002 0.0312,0 4.1232,0.80965 8.3399,1.6184 12.594,2.375 4.264,0.75843 8.5935,1.4755 12.937,2.1562 4.3439,0.68073 8.6898,1.3277 13.062,1.9062 0.0102,10e-4 0.0211,-10e-4 0.0312,0 6.5486,0.86611 13.125,1.6191 19.594,2.1875 2.1597,0.18976 4.2994,0.34953 6.4374,0.5 4.276,0.30095 8.5053,0.53079 12.656,0.65625 4.1508,0.12546 8.4028,0.19403 12.719,0.21875 8.7859,0.0503 17.881,-0.11752 27.25,-0.40625 13.642,-0.42043 27.847,-1.1347 42.375,-2 19.604,-1.1676 39.798,-2.5923 60.124,-3.875 15.024,-0.94578 30.098,-1.8073 45.031,-2.4375 0.39612,-0.0168 0.79158,-0.0461 1.1875,-0.0625 7.3934,-0.30587 14.77,-0.55147 22.062,-0.71875 4.9787,-0.1142 9.9316,-0.18447 14.844,-0.21875 2.456,-0.0172 4.9073,-0.0365 7.3437,-0.0312 l 124.81,0.28125 -8.6562,35.938 3.5,1.5 c 1.7476,0.63259 4.9601,0.92851 6.4687,0.9375 0.8486,0.005 1.7551,-0.0741 2.6875,-0.25 0.31069,-0.0585 0.62352,-0.14105 0.93749,-0.21875 0.30459,-0.0756 0.63258,-0.15668 0.93749,-0.25 0.62844,-0.19306 1.2635,-0.42156 1.875,-0.6875 1.8215,-0.79351 3.5342,-1.9314 4.7812,-3.3125 0.01,-0.0107 0.0217,-0.0206 0.0312,-0.0312 0.6248,-0.6979 1.1123,-1.4512 1.4687,-2.2812 l 12.156,-31.312 109.94,0.25 c 0.7469,0.3739 1.4761,0.74511 2.2187,1.0938 2.9792,1.3995 5.911,2.597 8.8436,3.625 1.4623,0.51259 2.9178,0.97549 4.375,1.4062 5.1,1.5075 10.188,2.5515 15.344,3.25 2.9462,0.39932 5.9259,0.69388 8.9374,0.90625 1.5057,0.1061 3.034,0.18011 4.5624,0.25 3.057,0.13994 6.1386,0.21283 9.3124,0.25 6.3475,0.0741 12.979,0 20,0 10.41,0 20.322,-0.53122 29.781,-1.5625 3.7835,-0.41251 7.4911,-0.89749 11.125,-1.4688 7.2676,-1.1425 14.228,-2.6189 20.906,-4.375 1.6694,-0.43903 3.3357,-0.89874 4.9687,-1.375 4.899,-1.4288 9.6128,-3.0254 14.187,-4.7812 1.5248,-0.58527 3.042,-1.1605 4.5312,-1.7812 2.9783,-1.2414 5.882,-2.557 8.7186,-3.9375 1.4183,-0.69027 2.8355,-1.4006 4.2187,-2.125 2.7664,-1.4488 5.4668,-2.98 8.0937,-4.5625 1.3135,-0.79125 2.5961,-1.6135 3.875,-2.4375 6.3943,-4.1201 12.363,-8.6255 17.906,-13.531 4.4286,-3.9195 8.6015,-8.0798 12.5,-12.469 0.005,-0.006 -0.005,-0.0254 0,-0.0312 0.97044,-1.0929 1.937,-2.1916 2.875,-3.3125 0.005,-0.006 -0.005,-0.0251 0,-0.0312 0.93773,-1.1209 1.8757,-2.2578 2.7812,-3.4062 0.005,-0.006 -0.005,-0.0249 0,-0.0312 2.7256,-3.4582 5.3132,-7.0189 7.7499,-10.719 0.005,-0.007 -0.005,-0.024 0,-0.0312 0.80882,-1.2286 1.6289,-2.4644 2.4062,-3.7188 0.005,-0.008 -0.005,-0.0238 0,-0.0312 2.3405,-3.7781 4.5668,-7.6525 6.6249,-11.656 0.004,-0.008 -0.004,-0.0231 0,-0.0312 0.68299,-1.3292 1.3477,-2.6781 2,-4.0312 0.004,-0.008 -0.004,-0.0229 0,-0.0312 0.65204,-1.3533 1.316,-2.7169 1.9375,-4.0938 0.004,-0.009 -0.004,-0.0227 0,-0.0312 1.2464,-2.7625 2.438,-5.5517 3.5625,-8.4062 0.004,-0.009 -0.004,-0.0224 0,-0.0312 0.56023,-1.4229 1.0948,-2.8674 1.625,-4.3125 0.003,-0.009 -0.003,-0.0222 0,-0.0312 0.53002,-1.4452 1.0623,-2.908 1.5625,-4.375 0.49999,-1.4671 0.99842,-2.949 1.4687,-4.4375 0.003,-0.009 -0.003,-0.022 0,-0.0312 0.47013,-1.4886 0.93435,-2.9905 1.375,-4.5 0.003,-0.01 -0.003,-0.0217 0,-0.0312 0.44045,-1.5096 0.87009,-3.0324 1.2812,-4.5625 0.003,-0.01 -0.003,-0.0217 0,-0.0312 1.2381,-4.6101 2.3684,-9.306 3.34372,-14.094 v -0.0312 c 0.3236,-1.5894 0.6112,-3.2044 0.9063,-4.8125 v -0.0312 c 2.0747,-11.318 3.4621,-23.062 4.1562,-35.219 5e-4,-0.0103 -6e-4,-0.0211 0,-0.0312 0.098,-1.7279 0.1787,-3.4757 0.25,-5.2188 4e-4,-0.0103 -4e-4,-0.0211 0,-0.0312 0.1426,-3.4969 0.2467,-7.0072 0.2812,-10.562 0,-0.0103 -10e-5,-0.0211 0,-0.0312 0.017,-1.783 0.01,-3.578 0,-5.375 0,-0.6358 -0.022,-1.2714 -0.031,-1.9062 0.01,-0.63485 0.031,-1.2704 0.031,-1.9062 0.01,-1.797 0.017,-3.592 0,-5.375 -10e-5,-0.0102 0,-0.0209 0,-0.0312 -0.034,-3.5553 -0.1386,-7.0656 -0.2812,-10.562 -4e-4,-0.0102 4e-4,-0.0209 0,-0.0312 -0.071,-1.7431 -0.152,-3.4908 -0.25,-5.2188 -6e-4,-0.0102 5e-4,-0.0209 0,-0.0312 -0.6941,-12.157 -2.0815,-23.9 -4.1562,-35.219 v -0.0312 c -0.2951,-1.6081 -0.5827,-3.2231 -0.9063,-4.8125 v -0.0312 c -0.97539,-4.7878 -2.10562,-9.4836 -3.34372,-14.094 -0.003,-0.01 0.003,-0.0213 0,-0.0312 -0.41115,-1.5301 -0.84079,-3.0529 -1.2812,-4.5625 -0.003,-0.01 0.003,-0.0213 0,-0.0312 -0.44063,-1.5095 -0.90485,-3.0114 -1.375,-4.5 -0.003,-0.009 0.003,-0.0223 0,-0.0312 -0.47032,-1.4885 -0.96875,-2.9704 -1.4687,-4.4375 -0.50017,-1.467 -1.0325,-2.9298 -1.5625,-4.375 -0.003,-0.009 0.003,-0.0223 0,-0.0312 -0.53021,-1.4451 -1.0648,-2.8896 -1.625,-4.3125 -0.004,-0.009 0.004,-0.0223 0,-0.0312 -1.1244,-2.8546 -2.3161,-5.6438 -3.5625,-8.4062 -0.004,-0.008 0.004,-0.0223 0,-0.0312 -0.62148,-1.3768 -1.2854,-2.7405 -1.9375,-4.0938 -0.004,-0.008 0.004,-0.0233 0,-0.0312 -0.65224,-1.3532 -1.317,-2.7021 -2,-4.0312 -0.004,-0.008 0.004,-0.0233 0,-0.0312 -2.0582,-4.0038 -4.2844,-7.8782 -6.6249,-11.656 -0.005,-0.007 0.005,-0.0233 0,-0.0312 -0.77733,-1.2543 -1.5974,-2.4902 -2.4062,-3.7188 -0.005,-0.007 0.005,-0.0242 0,-0.0312 -2.4367,-3.6999 -5.0243,-7.2606 -7.7499,-10.719 -0.005,-0.006 0.005,-0.0253 0,-0.0312 -0.90549,-1.1485 -1.8435,-2.2853 -2.7812,-3.4062 -0.005,-0.006 0.005,-0.0253 0,-0.0312 -0.93801,-1.1209 -1.9045,-2.2196 -2.875,-3.3125 -0.005,-0.006 0.005,-0.0253 0,-0.0312 -3.8983,-4.3889 -8.0712,-8.5493 -12.5,-12.469 -5.543,-4.9058 -11.512,-9.4112 -17.906,-13.531 -1.2789,-0.82402 -2.5615,-1.6462 -3.875,-2.4375 -2.6269,-1.5825 -5.3273,-3.1137 -8.0937,-4.5625 -1.3832,-0.72439 -2.8004,-1.4347 -4.2187,-2.125 -2.8367,-1.3806 -5.7403,-2.6961 -8.7186,-3.9375 -1.4892,-0.62071 -3.0064,-1.196 -4.5312,-1.7812 -4.5746,-1.7558 -9.2883,-3.3525 -14.187,-4.7812 -1.633,-0.47626 -3.2993,-0.93597 -4.9687,-1.375 -6.6777,-1.7561 -13.638,-3.2325 -20.906,-4.375 -3.6338,-0.57126 -7.3414,-1.0562 -11.125,-1.4688 -9.4586,-1.0326 -19.371,-1.5638 -29.781,-1.5638 -7.0204,0 -13.652,-0.0741 -20,0 -3.1738,0.0372 -6.2554,0.11006 -9.3124,0.25 -1.5285,0.0699 -3.0568,0.1439 -4.5624,0.25 -3.0115,0.21237 -5.9912,0.50693 -8.9374,0.90625 -5.1556,0.69849 -10.244,1.7425 -15.344,3.25 -1.4572,0.43076 -2.9127,0.89366 -4.375,1.4062 -2.9327,1.028 -5.8645,2.2255 -8.8436,3.625 -0.74267,0.34864 -1.4718,0.71985 -2.2187,1.0938 l -109.94,0.25 -12.156,-31.312 c -0.35644,-0.83 -0.84393,-1.5834 -1.4687,-2.2812 -0.01,-0.0105 -0.0213,-0.0206 -0.0312,-0.0312 -1.247,-1.3811 -2.9597,-2.519 -4.7812,-3.3125 -0.61146,-0.26594 -1.2465,-0.49444 -1.875,-0.6875 -0.30491,-0.0933 -0.6329,-0.1744 -0.93749,-0.25 -0.31402,-0.0777 -0.62685,-0.16025 -0.93754,-0.21875 -0.9324,-0.1759 -1.8389,-0.255 -2.6875,-0.25 z" />
          <path
             id="path2853"
             style="fill:#ffffff;fill-opacity:0.99608"
             d="m 610.52,493.69 c -1.5086,0.009 -4.7211,0.30611 -6.4687,0.9375 l -3.5,1.5 8.6562,35.844 -124.81,0.28125 c -77.963,0.1654 -166.52,-11.504 -232.93,-9.5 -66.412,2.0037 -152.12,28 -152.12,28 l -13.687,3.7812 c -19.251,5.2963 -25.718,97.367 -25.718,166.78 0,1.113 0.02665,2.2531 0.03125,3.375 -0.0046,1.1219 -0.03125,2.262 -0.03125,3.375 0,69.414 6.4673,161.48 25.718,166.78 l 13.687,3.7812 c 0,0 85.711,25.996 152.12,28 66.412,2.0037 154.97,-9.6654 232.93,-9.5 l 124.81,0.28125 -8.6562,35.844 3.5,1.5 c 1.7476,0.63139 4.96,0.92854 6.4687,0.9375 0.84859,0.005 1.7551,-0.0744 2.6875,-0.25 0.3107,-0.0584 0.62352,-0.14119 0.93749,-0.21875 0.30459,-0.0754 0.63259,-0.15686 0.93749,-0.25 0.62844,-0.19269 1.2635,-0.42206 1.875,-0.6875 1.8215,-0.79201 3.5342,-1.9028 4.7812,-3.2812 0.01,-0.0107 0.0217,-0.0208 0.0312,-0.0312 0.6248,-0.69658 1.1123,-1.4528 1.4687,-2.2812 l 12.156,-31.25 109.94,0.25 c 23.9,11.942 45.511,10.719 73.593,10.719 133.25,0 187.63002,-86.586 187.00002,-201.38 0,-0.7802 -0.019,-1.5656 -0.031,-2.3438 0.012,-0.77811 0.031,-1.5636 0.031,-2.3438 0.6282,-114.79 -53.74902,-201.38 -187.00002,-201.38 -28.082,0 -49.693,-1.2236 -73.593,10.719 l -109.94,0.25 -12.156,-31.25 c -0.35645,-0.82844 -0.84393,-1.5847 -1.4687,-2.2812 -0.01,-0.0104 -0.0213,-0.0206 -0.0312,-0.0312 -1.247,-1.3785 -2.9597,-2.4892 -4.7812,-3.2812 -0.61148,-0.26544 -1.2465,-0.49481 -1.875,-0.6875 -0.3049,-0.0931 -0.6329,-0.1746 -0.93749,-0.25 -0.31397,-0.0776 -0.62679,-0.16035 -0.93749,-0.21875 -0.93239,-0.1756 -1.8389,-0.255 -2.6875,-0.25 z" />
          <path
             id="path3643"
             style="opacity:0.9;fill:#262626;fill-opacity:0.99608"
             d="m 400.34,855.24 c -33.364,0 -65.307,1.8 -94.811,5.0625 25.66,48.714 97.985,30.265 205.56,31.531 49.686,0.58471 89.543,1.8793 121.53,2.375 -47.16,-23.334 -133.53,-38.969 -232.28,-38.969 z" />
          <path
             id="path3658"
             style="opacity:0.5;fill:#000000;fill-opacity:0.99608"
             d="m 400.34,855.24 c -3.2064,0 -6.3831,0.0295 -9.5624,0.0625 0.81825,16.171 6.4281,30.257 14.594,38.844 4.6714,-0.0756 9.4951,-0.19655 14.437,-0.34375 -8.5657,-8.1923 -14.593,-22.228 -15.719,-38.562 -1.2512,-0.005 -2.4947,0 -3.75,0 z" />
          <path
             id="path3707"
             style="color:#000000;text-indent:0;text-transform:none;fill:#212121;stroke:#191919;stroke-width:5"
             d="m 989.02,827.5 -5.0937,0.59375 c -21.545,2.5127 -37.688,25.979 -39.281,54.531 l -0.37499,7.125 5.2499,-4.8438 c 15.889,-14.68 28.303,-32.507 37.406,-52.75 l 2.09,-4.65 z" />
          <path
             id="path3715"
             style="opacity:0.5;fill:none;stroke:#292929;stroke-width:6;stroke-linecap:round;stroke-linejoin:round"
             d="m 783.47,838.5 c 0,0 79.677,-22.596 105.38,-31.982 26.839,-9.8018 98.859,-39.146 98.859,-39.146 0,0 -8.7409,42.47 -30.483,57.918 -77.23,54.87 -232.69,53.85 -232.69,53.85" />
          <path
             id="path3757"
             style="fill:url(#linearGradient4149-5)"
             d="m 869.97,817.84 -4.4374,2.3438 c 0.98912,1.1568 1.7955,2.4286 2.375,3.8438 4.7979,11.717 -10.736,29.236 -26.875,35.781 -0.51675,0.20958 -1.8129,0.84066 -3.4062,1.6562 l 13.625,-3.875 c 17.306,-8.4576 27.47,-23.082 23,-34 -0.91615,-2.2373 -2.3752,-4.1661 -4.2812,-5.75 z" />
          <path
             id="path3787"
             style="fill:url(#linearGradient4203-5)"
             d="m 878.55,813.38 -4.4375,2.3438 c 0.98913,1.1568 1.7955,2.4286 2.375,3.8438 4.7979,11.717 -10.736,29.236 -26.875,35.781 -0.51676,0.20958 -1.8129,0.84066 -3.4062,1.6562 l 13.625,-3.875 c 17.306,-8.4576 27.47,-23.082 23,-34 -0.91615,-2.2373 -2.3752,-4.1661 -4.2812,-5.75 z" />
          <path
             id="path3752"
             style="fill:url(#linearGradient4155-7)"
             d="m 884.74,811.96 -4.4374,2.3438 c 0.98913,1.1568 1.7955,2.4286 2.375,3.8438 4.7979,11.717 -10.736,29.236 -26.875,35.781 -0.51675,0.20958 -1.8129,0.84066 -3.4062,1.6562 l 13.625,-3.875 c 17.306,-8.4576 27.47,-23.082 23,-34 -0.91615,-2.2373 -2.3752,-4.1661 -4.2812,-5.75 z" />
          <path
             id="path3735"
             style="fill:url(#linearGradient4205-6)"
             d="m 901.65,807.69 -6.1874,1.8438 c 0.96015,1.7128 1.6545,3.5323 2.0312,5.4688 3.1194,16.034 -20.962,34.284 -43.031,38.5 -3.395,0.64864 -28.884,8.576 -32.158,8.8044 v 4.125 l 41.439,-12.148 c 26.285,-5.4963 44.949,-22.448 41.875,-38.25 -0.59564,-3.0616 -1.956,-5.8595 -3.9687,-8.3438 z" />
          <path
             id="path3783"
             style="fill:url(#linearGradient4207-1)"
             d="m 901.65,807.69 -6.1874,1.8438 c 0.96015,1.7128 1.6545,3.5323 2.0312,5.4688 3.1194,16.034 -20.962,34.284 -43.031,38.5 -3.395,0.64864 -28.884,8.576 -32.158,8.8044 v 4.125 l 41.439,-12.148 c 26.285,-5.4963 44.949,-22.448 41.875,-38.25 -0.59564,-3.0616 -1.956,-5.8595 -3.9687,-8.3438 z" />
          <path
             id="path3799"
             style="fill:url(#linearGradient4209-3)"
             d="m 857.12,822.46 -3.9641,2.0937 c 0.88361,1.0334 1.604,2.1696 2.1216,3.4337 4.2861,10.467 -9.5906,26.117 -24.008,31.964 -0.46163,0.18723 -1.6195,0.75098 -3.0428,1.4796 l 12.171,-3.4616 c 15.46,-7.5554 24.54,-20.62 20.546,-30.373 -0.81842,-1.9987 -2.1218,-3.7216 -3.8245,-5.1366 z" />
          <path
             id="path3803"
             style="fill:url(#linearGradient4153-9)"
             d="m 843.32,826.03 -3.9641,2.0937 c 0.88361,1.0334 1.604,2.1696 2.1216,3.4337 4.2861,10.467 -9.5906,26.117 -24.008,31.964 -0.46162,0.18723 -1.6195,0.75098 -3.0428,1.4796 l 12.171,-3.4616 c 15.46,-7.5554 24.54,-20.62 20.546,-30.373 -0.81842,-1.9987 -2.1218,-3.7216 -3.8245,-5.1366 z" />
          <path
             id="rect3861"
             style="fill:url(#linearGradient4211-5)"
             d="m 233.27,845.72 c 8.293,-2.0234 15.486,-1.4788 19.797,5.7872 l -2.4934,17.897 c -6.8751,6.1732 -13.75,4.9509 -20.625,0.15543 l 3.3212,-23.839 z" />
          <path
             id="path3864"
             style="fill:url(#linearGradient4213-0)"
             d="m 253.54,848.99 c 8.1502,-1.2102 15.167,-0.5728 18.843,5.5081 l -2.3731,17.034 c -6.4839,2.9748 -12.983,5.2096 -19.631,0.14793 l 3.1611,-22.69 z" />
          <path
             id="path4025"
             style="color:#000000;text-indent:0;text-transform:none;opacity:0.9;fill:#191919"
             d="m 400.34,852.75 c -33.454,0 -65.492,1.7894 -95.093,5.0625 l -3.6562,0.40625 1.7187,3.25 c 6.6711,12.664 16.562,21.113 29.062,26.438 12.501,5.3241 27.572,7.6126 45.093,8.4375 35.042,1.6498 79.954,-2.6312 133.59,-2 49.659,0.58438 89.508,1.8787 121.53,2.375 l 1.125,-4.75 c -47.84,-23.68 -134.34,-39.22 -233.36,-39.22 z m 0,5 c 91.169,0 171.75,13.479 220.09,33.719 -29.952,-0.58241 -65.212,-1.606 -109.31,-2.125 -53.937,-0.63473 -98.976,3.6522 -133.4,2.0312 -17.214,-0.81046 -31.767,-3.1054 -43.406,-8.0625 -10.453,-4.4521 -18.485,-11.154 -24.5,-20.906 28.307,-2.9831 58.735,-4.6562 90.53,-4.6562 z" />
          <path
             id="rect2864"
             style="opacity:0.9;fill:#262626;fill-opacity:0.99608;stroke:#191919;stroke-width:5"
             d="m 260.5,607.38 -77.749,12.469 c -27.15,4.3542 -48.947,48.773 -50.999,104.84 2.0523,56.071 23.849,100.49 50.999,104.84 l 77.749,12.469 c 13.296,0 24,-10.704 24,-24 v -186.62 c 0,-13.296 -10.704,-24 -24,-24 z" />
          <path
             id="path3703"
             style="opacity:0.9;fill:#262626;fill-opacity:0.99608;stroke:#191919;stroke-width:5"
             d="m 691.96,573.16 c -2.9692,0 -5.8933,0.33215 -8.7812,0.96875 -0.0104,-0.01 -0.0208,-0.021 -0.0312,-0.0312 l -63.843,12.312 c -17.728,6.6047 -32,14.272 -32,32 v 212.56 c 0,17.728 14.272,25.395 32,32 l 63.843,12.312 c 0.0105,-0.0102 0.0208,-0.0211 0.0312,-0.0312 2.8879,0.6366 5.812,0.96875 8.7812,0.96875 45.395,0 82.198,-57.363 82.312,-151.53 -0.11408,-94.169 -36.916,-151.53 -82.312,-151.53 z" />
          <path
             id="path4157"
             style="opacity:0.9;fill:#262626;fill-opacity:0.99608"
             d="m 400.34,594.15 c -33.364,0 -65.307,-1.8 -94.811,-5.0625 25.66,-48.714 97.985,-30.265 205.56,-31.531 49.686,-0.58471 89.543,-1.8793 121.53,-2.375 -47.16,23.334 -133.53,38.969 -232.28,38.969 z" />
          <path
             id="path4159"
             style="opacity:0.5;fill:#000000;fill-opacity:0.99608"
             d="m 400.34,594.15 c -3.2064,0 -6.3831,-0.0295 -9.5624,-0.0625 0.81825,-16.171 6.4281,-30.257 14.594,-38.844 4.6714,0.0756 9.4951,0.19655 14.437,0.34375 -8.5657,8.1923 -14.593,22.228 -15.719,38.562 -1.2512,0.005 -2.4947,0 -3.75,0 z" />
          <path
             id="path4161"
             style="color:#000000;text-indent:0;text-transform:none;fill:#212121;stroke:#191919;stroke-width:5"
             d="m 989.02,621.89 -5.0937,-0.59375 c -21.545,-2.5127 -37.688,-25.979 -39.281,-54.531 l -0.37499,-7.125 5.2499,4.8438 c 15.889,14.68 28.303,32.507 37.406,52.75 l 2.0937,4.6562 z" />
          <path
             id="path4163"
             style="opacity:0.5;fill:none;stroke:#292929;stroke-width:6;stroke-linecap:round;stroke-linejoin:round"
             d="m 783.47,610.89 c 0,0 79.677,22.596 105.38,31.982 26.839,9.8018 98.859,39.146 98.859,39.146 0,0 -8.7409,-42.47 -30.483,-57.918 -77.23,-54.87 -232.69,-53.86 -232.69,-53.86" />
          <path
             id="path4165"
             style="fill:url(#linearGradient4185-4)"
             d="m 869.97,631.55 -4.4374,-2.3438 c 0.98912,-1.1568 1.7955,-2.4286 2.375,-3.8438 4.7979,-11.717 -10.736,-29.236 -26.875,-35.781 -0.51675,-0.20958 -1.8129,-0.84066 -3.4062,-1.6562 l 13.625,3.875 c 17.306,8.4576 27.47,23.082 23,34 -0.91615,2.2373 -2.3752,4.1661 -4.2812,5.75 z" />
          <path
             id="path4167"
             style="fill:url(#linearGradient4187-8)"
             d="m 878.55,636.01 -4.4375,-2.3438 c 0.98913,-1.1568 1.7955,-2.4286 2.375,-3.8438 4.7979,-11.717 -10.736,-29.236 -26.875,-35.781 -0.51676,-0.20958 -1.8129,-0.84066 -3.4062,-1.6562 l 13.625,3.875 c 17.306,8.4576 27.47,23.082 23,34 -0.91615,2.2373 -2.3752,4.1661 -4.2812,5.75 z" />
          <path
             id="path4169"
             style="fill:url(#linearGradient4189-4)"
             d="m 884.74,637.42 -4.4374,-2.3438 c 0.98913,-1.1568 1.7955,-2.4286 2.375,-3.8438 4.7979,-11.717 -10.736,-29.236 -26.875,-35.781 -0.51675,-0.20958 -1.8129,-0.84066 -3.4062,-1.6562 l 13.625,3.875 c 17.306,8.4576 27.47,23.082 23,34 -0.91615,2.2373 -2.3752,4.1661 -4.2812,5.75 z" />
          <path
             id="path4171"
             style="fill:url(#linearGradient4191-0)"
             d="m 901.65,641.7 -6.1874,-1.8438 c 0.96015,-1.7128 1.6545,-3.5323 2.0312,-5.4688 3.1194,-16.034 -20.962,-34.284 -43.031,-38.5 -3.395,-0.64864 -28.884,-8.576 -32.158,-8.8044 v -4.125 l 41.439,12.148 c 26.285,5.4963 44.949,22.448 41.875,38.25 -0.59564,3.0616 -1.956,5.8595 -3.9687,8.3438 z" />
          <path
             id="path4173"
             style="fill:url(#linearGradient4193-6)"
             d="m 901.65,641.7 -6.1874,-1.8438 c 0.96015,-1.7128 1.6545,-3.5323 2.0312,-5.4688 3.1194,-16.034 -20.962,-34.284 -43.031,-38.5 -3.395,-0.64864 -28.884,-8.576 -32.158,-8.8044 v -4.125 l 41.439,12.148 c 26.285,5.4963 44.949,22.448 41.875,38.25 -0.59564,3.0616 -1.956,5.8595 -3.9687,8.3438 z" />
          <path
             id="path4175"
             style="fill:url(#linearGradient4195-2)"
             d="m 857.12,626.93 -3.9641,-2.0937 c 0.88361,-1.0334 1.604,-2.1696 2.1216,-3.4337 4.2861,-10.467 -9.5906,-26.117 -24.008,-31.964 -0.46163,-0.18723 -1.6195,-0.75098 -3.0428,-1.4796 l 12.171,3.4616 c 15.46,7.5554 24.54,20.62 20.546,30.373 -0.81842,1.9987 -2.1218,3.7216 -3.8245,5.1366 z" />
          <path
             id="path4177"
             style="fill:url(#linearGradient4197-3)"
             d="m 843.32,623.36 -3.9641,-2.0937 c 0.88361,-1.0334 1.604,-2.1696 2.1216,-3.4337 4.2861,-10.467 -9.5906,-26.117 -24.008,-31.964 -0.46162,-0.18723 -1.6195,-0.75098 -3.0428,-1.4796 l 12.171,3.4616 c 15.46,7.5554 24.54,20.62 20.546,30.373 -0.81842,1.9987 -2.1218,3.7216 -3.8245,5.1366 z" />
          <path
             id="path4179"
             style="fill:url(#linearGradient4199-3)"
             d="m 233.27,603.66 c 8.293,2.0234 15.486,1.4788 19.797,-5.7872 l -2.4934,-17.897 c -6.8751,-6.1732 -13.75,-4.9509 -20.625,-0.15543 l 3.3212,23.839 z" />
          <path
             id="path4181"
             style="fill:url(#linearGradient4201-0)"
             d="m 253.54,600.4 c 8.1502,1.2102 15.167,0.5728 18.843,-5.5081 l -2.3731,-17.034 c -6.4839,-2.9748 -12.983,-5.2096 -19.631,-0.14793 l 3.1611,22.69 z" />
          <path
             id="path4183"
             style="color:#000000;text-indent:0;text-transform:none;opacity:0.9;fill:#191919"
             d="m 400.34,596.64 c -33.454,0 -65.492,-1.7894 -95.093,-5.0625 l -3.6562,-0.40625 1.7187,-3.25 c 6.6711,-12.664 16.562,-21.113 29.062,-26.438 12.501,-5.3241 27.572,-7.6126 45.093,-8.4375 35.042,-1.6498 79.954,2.6312 133.59,2 49.659,-0.58438 89.508,-1.8787 121.53,-2.375 l 1.125,4.75 c -47.849,23.675 -134.36,39.219 -233.37,39.219 z m 0,-5 c 91.169,0 171.75,-13.479 220.09,-33.719 -29.952,0.58241 -65.212,1.606 -109.31,2.125 -53.937,0.63473 -98.976,-3.6522 -133.4,-2.0312 -17.214,0.81046 -31.767,3.1054 -43.406,8.0625 -10.453,4.4521 -18.485,11.154 -24.5,20.906 28.307,2.9831 58.735,4.6562 90.53,4.6562 z" />
        </g>
      </g>
      <path
         style="color:#000000;clip-rule:nonzero;display:inline;overflow:visible;visibility:visible;opacity:1;isolation:auto;mix-blend-mode:normal;color-interpolation:sRGB;color-interpolation-filters:linearRGB;solid-color:#000000;solid-opacity:1;fill:#000000;fill-opacity:1;fill-rule:nonzero;stroke:none;stroke-width:30;stroke-linecap:round;stroke-linejoin:round;stroke-miterlimit:4;stroke-dasharray:none;stroke-dashoffset:0;stroke-opacity:0.789474;color-rendering:auto;image-rendering:auto;shape-rendering:auto;text-rendering:auto;enable-background:accumulate"
         d="m 22.330078,209.29102 v 24.11523 h 45.470703 v -24.11523 z m 216.394532,0 v 24.11523 h 282.61523 v -24.11523 z m 496.77734,0 v 24.11523 H 946.79492 V 209.29102 Z M 22.330078,242.59375 v 24.11523 h 45.470703 v -24.11523 z m 216.394532,0 v 24.11523 h 282.61523 v -24.11523 z m 496.77734,0 v 24.11523 h 211.29297 v -24.11523 z"
         id="rect4190" />
    </g>
    <g
       id="g9399"
       transform="matrix(0.33133439,0,0,0.33900439,36.436772,548.15112)">
      <g
         inkscape:label="Calque 1"
         id="layer1-9">
        <circle
           style="fill:#cc2c2c;fill-opacity:1"
           id="Background-0"
           cx="256"
           cy="256"
           r="256" />
        <circle
           style="fill:#ffffff;fill-opacity:1;stroke:none;stroke-width:0;stroke-miterlimit:4;stroke-dasharray:none;stroke-opacity:1"
           id="WhiteCircle"
           cx="256"
           cy="256"
           r="200" />
      </g>
      <g
         id="layer2"
         inkscape:label="Calque 2" />
      <text
         xml:space="preserve"
         style="font-style:normal;font-variant:normal;font-weight:normal;font-stretch:normal;font-size:300px;line-height:1.25;font-family:l7;-inkscape-font-specification:l7;fill:#000000;fill-opacity:1;stroke:none"
         x="256"
         y="360"
         id="text2088"><tspan
           sodipodi:role="line"
           id="tspan2086"
           x="256"
           y="360"
           style="font-style:normal;font-variant:normal;font-weight:normal;font-stretch:normal;font-size:300px;font-family:'Caracteres L1';-inkscape-font-specification:'Caracteres L1';text-align:center;text-anchor:middle">30</tspan></text>
    </g>
  </g>
</svg>
