<svg xmlns="http://www.w3.org/2000/svg" viewBox="0 0 400 300"><defs><style>.cls-1{fill:#1a1a1a;}.cls-2{fill:#818181;}</style></defs><g id="Layer_1" data-name="Layer 1"><rect class="cls-1" x="299" y="120.6" width="22" height="22"/><rect class="cls-1" x="255" y="120.6" width="22" height="22"/><rect class="cls-1" x="211" y="120.6" width="22" height="22"/><rect class="cls-1" x="299" y="76.6" width="22" height="22"/><rect class="cls-1" x="277" y="98.6" width="22" height="22"/><rect class="cls-1" x="255" y="76.6" width="22" height="22"/><rect class="cls-1" x="233" y="98.6" width="22" height="22"/><rect class="cls-1" x="211" y="76.6" width="22" height="22"/><rect class="cls-1" x="167" y="76.6" width="22" height="66"/><rect class="cls-1" x="123" y="76.6" width="22" height="66"/><rect class="cls-1" x="79" y="76.6" width="22" height="66"/><path class="cls-1" d="M89.8,225.69H82.57v-37H89.8Z"/><path class="cls-2" d="M149.82,200.2a12,12,0,0,1-.82,4.45,10.69,10.69,0,0,1-2.41,3.68,11.35,11.35,0,0,1-3.9,2.51,13.73,13.73,0,0,1-5.1.91h-7.11v13.94h-7.24v-37h14.35a13.91,13.91,0,0,1,5.07.89,11.06,11.06,0,0,1,3.9,2.49,10.53,10.53,0,0,1,2.44,3.68A12,12,0,0,1,149.82,200.2Zm-7.23,0a5.16,5.16,0,0,0-.68-2.64,4.52,4.52,0,0,0-1.89-1.81,6,6,0,0,0-2.79-.63h-6.75v10.13h6.75a6.1,6.1,0,0,0,2.79-.62,4.49,4.49,0,0,0,1.89-1.77A5.13,5.13,0,0,0,142.59,200.2Z"/><path class="cls-2" d="M207.64,225.69H200.1l-2.19-6.55H184.76l-2.23,6.55H175l13.48-37h5.66ZM196,213l-4.55-13.45L186.79,213Z"/><path class="cls-1" d="M260.6,225.69H237.35V219.6l12.11-10.34a17,17,0,0,0,2.8-2.94,4.67,4.67,0,0,0,.91-2.67,4,4,0,0,0-1.24-3.1,4.5,4.5,0,0,0-3.23-1.17,4.78,4.78,0,0,0-3.23,1.15,4.28,4.28,0,0,0-1.32,3.43H237.4a10.58,10.58,0,0,1,1.48-5.65,9.78,9.78,0,0,1,4.08-3.72,12.58,12.58,0,0,1,5.74-1.3,13.49,13.49,0,0,1,4.43.71,10.56,10.56,0,0,1,3.56,2.06,9.39,9.39,0,0,1,2.38,3.27,10.33,10.33,0,0,1,.85,4.22,7.75,7.75,0,0,1-.83,3.54,13.55,13.55,0,0,1-2.26,3.17,46.87,46.87,0,0,1-3.51,3.37l-6.71,6h14Z"/><path class="cls-1" d="M321.5,225.69h-8.27l-7.18-12.9-7.11,12.9h-8.27l11.49-19-10.75-18h8.19l6.45,12,6.49-12h8.17L310,206.7Z"/></g></svg>