<svg xmlns="http://www.w3.org/2000/svg" viewBox="0 0 300 400"><defs><style>.cls-1{fill:#b3b3b3;}.cls-2{fill:#fff;}</style></defs><g id="Layer_1" data-name="Layer 1"><rect class="cls-1" x="183" y="167" width="22" height="22" transform="translate(388 356) rotate(180)"/><rect class="cls-1" x="139" y="167" width="22" height="22" transform="translate(300 356) rotate(180)"/><rect class="cls-1" x="95" y="167" width="22" height="22" transform="translate(212 356) rotate(180)"/><rect class="cls-1" x="183" y="123" width="22" height="22" transform="translate(388 268) rotate(180)"/><rect class="cls-1" x="161" y="145" width="22" height="22" transform="translate(344 312) rotate(180)"/><rect class="cls-1" x="139" y="123" width="22" height="22" transform="translate(300 268) rotate(180)"/><rect class="cls-1" x="117" y="145" width="22" height="22" transform="translate(256 312) rotate(180)"/><rect class="cls-1" x="95" y="123" width="22" height="22" transform="translate(212 268) rotate(180)"/><rect class="cls-2" x="183" y="211" width="22" height="66" transform="translate(388 488) rotate(180)"/><rect class="cls-2" x="139" y="211" width="22" height="66" transform="translate(300 488) rotate(180)"/><rect class="cls-2" x="95" y="211" width="22" height="66" transform="translate(212 488) rotate(180)"/></g></svg>