<svg xmlns="http://www.w3.org/2000/svg" viewBox="0 0 300 400"><defs><style>.cls-1,.cls-4{fill:#00248e;}.cls-2{fill:#fff30b;}.cls-3{fill:#fff;}.cls-4{opacity:0.55;}</style></defs><g id="Layer_1" data-name="Layer 1"><rect class="cls-1" x="62" y="58.54" width="176" height="220"/><rect class="cls-2" x="183" y="135.54" width="22" height="22" transform="translate(388 293.08) rotate(180)"/><rect class="cls-2" x="139" y="135.54" width="22" height="22" transform="translate(300 293.08) rotate(180)"/><rect class="cls-2" x="95" y="135.54" width="22" height="22" transform="translate(212 293.08) rotate(180)"/><rect class="cls-2" x="183" y="91.54" width="22" height="22" transform="translate(388 205.08) rotate(180)"/><rect class="cls-2" x="161" y="113.54" width="22" height="22" transform="translate(344 249.08) rotate(180)"/><rect class="cls-2" x="139" y="91.54" width="22" height="22" transform="translate(300 205.08) rotate(180)"/><rect class="cls-2" x="117" y="113.54" width="22" height="22" transform="translate(256 249.08) rotate(180)"/><rect class="cls-2" x="95" y="91.54" width="22" height="22" transform="translate(212 205.08) rotate(180)"/><rect class="cls-3" x="183" y="179.54" width="22" height="66"/><rect class="cls-3" x="139" y="179.54" width="22" height="66"/><rect class="cls-3" x="95" y="179.54" width="22" height="66"/><path class="cls-1" d="M73.31,334h-5V308.41h5Z"/><path class="cls-4" d="M115.08,316.39a8.4,8.4,0,0,1-.58,3.09,7.42,7.42,0,0,1-1.67,2.55,7.84,7.84,0,0,1-2.69,1.73,9.61,9.61,0,0,1-3.54.63h-4.92V334h-5V308.41h9.93a9.67,9.67,0,0,1,3.52.62,7.85,7.85,0,0,1,2.7,1.72,7.45,7.45,0,0,1,1.68,2.55A8.32,8.32,0,0,1,115.08,316.39Zm-5,0a3.61,3.61,0,0,0-.47-1.83,3.2,3.2,0,0,0-1.31-1.24,4,4,0,0,0-1.93-.44h-4.68v7h4.68a4.15,4.15,0,0,0,1.93-.43,3.15,3.15,0,0,0,1.31-1.22A3.58,3.58,0,0,0,110.07,316.39Z"/><path class="cls-4" d="M155.34,334h-5.22l-1.51-4.53H139.5L138,334h-5.22l9.33-25.63H146Zm-8.05-8.75L144.14,316l-3.23,9.32Z"/><path class="cls-1" d="M192.18,334h-16.1v-4.22l8.39-7.15a11.73,11.73,0,0,0,1.94-2,3.16,3.16,0,0,0,.62-1.85,2.8,2.8,0,0,0-.85-2.14,3.11,3.11,0,0,0-2.24-.81,3.27,3.27,0,0,0-2.23.79,3,3,0,0,0-.92,2.37h-4.67a7.32,7.32,0,0,1,1-3.91,6.74,6.74,0,0,1,2.82-2.57,8.71,8.71,0,0,1,4-.9,9.54,9.54,0,0,1,3.07.49,7.48,7.48,0,0,1,2.47,1.43,6.42,6.42,0,0,1,1.64,2.26,7.26,7.26,0,0,1,.59,2.92,5.42,5.42,0,0,1-.57,2.46,9.38,9.38,0,0,1-1.57,2.19,33.07,33.07,0,0,1-2.43,2.33l-4.64,4.13h9.68Z"/><path class="cls-1" d="M234.52,334h-5.73l-5-8.93L218.9,334h-5.72l7.95-13.15-7.44-12.48h5.67l4.46,8.28,4.5-8.28H234l-7.44,12.48Z"/></g></svg>