<?xml version="1.0" encoding="UTF-8"?><svg xmlns="http://www.w3.org/2000/svg" viewBox="0 0 400 300"><defs><style>.d{fill:#fff;}.e{fill:#7d87ba;}.f{fill:#00248e;}.g{fill:#fff30b;}</style></defs><g id="a"/><g id="b"/><g id="c"><rect class="f" x="46" y="43.6" width="308" height="132"/><g><rect class="g" x="299" y="120.6" width="22" height="22" transform="translate(620 263.2) rotate(180)"/><rect class="g" x="255" y="120.6" width="22" height="22" transform="translate(532 263.2) rotate(180)"/><rect class="g" x="211" y="120.6" width="22" height="22" transform="translate(444 263.2) rotate(180)"/><rect class="g" x="299" y="76.6" width="22" height="22" transform="translate(620 175.2) rotate(180)"/><rect class="g" x="277" y="98.6" width="22" height="22" transform="translate(576 219.2) rotate(180)"/><rect class="g" x="255" y="76.6" width="22" height="22" transform="translate(532 175.2) rotate(180)"/><rect class="g" x="233" y="98.6" width="22" height="22" transform="translate(488 219.2) rotate(180)"/><rect class="g" x="211" y="76.6" width="22" height="22" transform="translate(444 175.2) rotate(180)"/></g><g><rect class="d" x="167" y="76.6" width="22" height="66" transform="translate(356 219.2) rotate(180)"/><rect class="d" x="123" y="76.6" width="22" height="66" transform="translate(268 219.2) rotate(180)"/><rect class="d" x="79" y="76.6" width="22" height="66" transform="translate(180 219.2) rotate(180)"/></g><g><path class="f" d="M89.8,245.69h-7.24v-37.02h7.24v37.02Z"/><path class="e" d="M149.82,220.2c0,1.57-.28,3.06-.83,4.46s-1.35,2.62-2.41,3.68-2.36,1.89-3.9,2.5-3.24,.91-5.1,.91h-7.11v13.94h-7.24v-37.02h14.35c1.86,0,3.55,.3,5.08,.89s2.82,1.42,3.9,2.49,1.89,2.29,2.44,3.68,.83,2.88,.83,4.47Zm-7.24,0c0-.98-.22-1.86-.67-2.64s-1.08-1.38-1.89-1.8-1.74-.63-2.79-.63h-6.75v10.13h6.75c1.05,0,1.98-.21,2.79-.62s1.44-1,1.89-1.76,.67-1.65,.67-2.67Z"/><path class="e" d="M207.64,245.69h-7.54l-2.18-6.55h-13.15l-2.23,6.55h-7.54l13.48-37.02h5.66l13.51,37.02Zm-11.63-12.64l-4.54-13.46-4.67,13.46h9.22Z"/><path class="f" d="M260.6,245.69h-23.26v-6.09l12.11-10.33c1.27-1.1,2.21-2.08,2.81-2.95s.9-1.75,.9-2.67c0-1.29-.41-2.32-1.23-3.1s-1.9-1.17-3.24-1.17-2.34,.38-3.22,1.14-1.32,1.9-1.32,3.43h-6.75c0-2.15,.5-4.03,1.49-5.65s2.35-2.86,4.08-3.72,3.64-1.29,5.74-1.29c1.59,0,3.07,.24,4.43,.71s2.55,1.16,3.57,2.06,1.81,1.99,2.37,3.28,.85,2.69,.85,4.21c0,1.27-.28,2.45-.83,3.54s-1.3,2.15-2.26,3.17-2.13,2.15-3.52,3.36l-6.7,5.97h13.99v6.09Z"/><path class="f" d="M321.5,245.69h-8.27l-7.18-12.9-7.1,12.9h-8.27l11.49-18.99-10.76-18.03h8.19l6.44,11.96,6.5-11.96h8.17l-10.76,18.03,11.54,18.99Z"/></g></g></svg>