<svg xmlns="http://www.w3.org/2000/svg" viewBox="0 0 400 300"><defs><style>.cls-1{fill:#00248e;}.cls-2{fill:#fff30b;}.cls-3{fill:#fff;}</style></defs><g id="Layer_1" data-name="Layer 1"><rect class="cls-1" x="46" y="84" width="308" height="132"/><rect class="cls-2" x="299" y="161" width="22" height="22" transform="translate(620 344) rotate(180)"/><rect class="cls-2" x="255" y="161" width="22" height="22" transform="translate(532 344) rotate(180)"/><rect class="cls-2" x="211" y="161" width="22" height="22" transform="translate(444 344) rotate(180)"/><rect class="cls-2" x="299" y="117" width="22" height="22" transform="translate(620 256) rotate(180)"/><rect class="cls-2" x="277" y="139" width="22" height="22" transform="translate(576 300) rotate(180)"/><rect class="cls-2" x="255" y="117" width="22" height="22" transform="translate(532 256) rotate(180)"/><rect class="cls-2" x="233" y="139" width="22" height="22" transform="translate(488 300) rotate(180)"/><rect class="cls-2" x="211" y="117" width="22" height="22" transform="translate(444 256) rotate(180)"/><rect class="cls-3" x="167" y="117" width="22" height="66" transform="translate(356 300) rotate(180)"/><rect class="cls-3" x="123" y="117" width="22" height="66" transform="translate(268 300) rotate(180)"/><rect class="cls-3" x="79" y="117" width="22" height="66" transform="translate(180 300) rotate(180)"/></g></svg>